<?xml version="1.0" encoding="utf-8"?>
<!-- Generator: Adobe Illustrator 26.0.1, SVG Export Plug-In . SVG Version: 6.00 Build 0)  -->
<svg version="1.1" id="Capa_1" xmlns="http://www.w3.org/2000/svg" xmlns:xlink="http://www.w3.org/1999/xlink" x="0px" y="0px"
	 viewBox="0 0 270 38.9" style="enable-background:new 0 0 270 38.9;" xml:space="preserve">
<style type="text/css">
	.st0{fill-rule:evenodd;clip-rule:evenodd;fill:#502C84;}
	.st1{fill:#FF0000;}
</style>
<g>
	<path class="st0" d="M262.5,25.9c-0.4,0.8-0.5,1.4-1,2.1c-0.5,0.6-0.9,1.1-1.6,1.6c-1.4,0.9-3.3,1.2-5.2,0.8
		c-3.3-0.7-5.4-3.4-5.5-7.3c-0.1-4,1.8-6.9,5.1-7.8c4.1-1.1,7.2,1.1,8,4.4l6.7-2.2c-0.7-3.3-3.2-6-5.4-7.3c-8.6-5.2-22-0.3-22,12.6
		c0,12.8,13.6,17.7,21.8,12.6c1.3-0.8,2.5-1.9,3.4-3c0.8-1,1.9-2.8,2.1-4.4L262.5,25.9z"/>
	<path class="st0" d="M215.8,21.3c-4.8-2.6-10.6-1.4-11.1-4.4c-0.6-3.4,6-4.3,8.2-1.3c0.5,0.7,0.4,1.1,0.8,1.8l6-1.4h0.1
		c-0.4-5.4-7-8.3-12.6-7.8c-10.4,1-12.9,12.5-4.1,16.2c2.5,1,5.6,1.2,8,2.2c3.1,1.2,2.3,4.7-1.4,5c-3.4,0.3-5.9-1.2-6.3-4.1
		l-6.4,1.3c0.5,5.6,6.7,8.6,12.3,8.5c3.1-0.1,6-1.1,7.8-2.6C221.4,31.4,221.3,24.3,215.8,21.3z"/>
	<path class="st0" d="M234.8,30.7c-1.8-0.2-2.6-1.2-2.8-3c-0.1-1.6,0-9.4,0-11.5h-7.4c-0.1,3,0,6.3,0,9.3s-0.2,5.9,1.2,8.2
		c2.9,4.7,10.5,4.4,13.5,2.1v-6.1C237.9,30.4,236.9,31,234.8,30.7z"/>
	<rect x="224.6" y="1.5" class="st0" width="7.4" height="7.5"/>
	<rect x="232" y="9" class="st0" width="7.4" height="7.2"/>
</g>
<path d="M175.6,37.5c-0.3,0-0.6-0.3-0.6-0.6V2c0-0.3,0.3-0.6,0.6-0.6s0.6,0.3,0.6,0.6v34.9C176.1,37.2,175.9,37.5,175.6,37.5
	L175.6,37.5z"/>
<g>
	<path class="st1" d="M32.8,22.2c3.1,0,7.7-0.7,7.7-4.4c0-0.3,0-0.6-0.1-0.9l-1.9-8.1c-0.4-1.8-0.8-2.6-3.9-4.2
		c-2.5-1.2-7.7-3.3-9.3-3.3c-1.5,0-1.9,1.9-3.6,1.9c-1.7,0-2.9-1.4-4.5-1.4c-1.5,0-2.5,1-3.2,3.1c0,0-2.1,5.9-2.4,6.8
		c-0.1,0.2-0.1,0.4-0.1,0.5C11.5,14.6,20.6,22.2,32.8,22.2 M41,19.4c0.4,2.1,0.4,2.3,0.4,2.5c0,3.5-3.9,5.5-9.1,5.5
		c-11.7,0-22-6.9-22-11.4c0-0.7,0.2-1.4,0.4-1.8c-4.2,0.2-9.7,1-9.7,5.8c0,7.9,18.7,17.6,33.5,17.6c11.3,0,14.2-5.1,14.2-9.2
		C48.7,25.1,46,21.5,41,19.4"/>
	<path d="M41,19.4c0.4,2.1,0.4,2.3,0.4,2.5c0,3.5-3.9,5.5-9.1,5.5c-11.7,0-22-6.9-22-11.4c0-0.7,0.2-1.4,0.4-1.8l0.9-2.3
		c-0.1,0.2-0.1,0.4-0.1,0.5c0,2.3,9.1,9.9,21.3,9.9c3.1,0,7.7-0.7,7.7-4.4c0-0.3,0-0.6-0.1-0.9L41,19.4z"/>
	<path d="M146.1,24.5c0,3,1.8,4.4,5.1,4.4c0.8,0,2.2-0.2,3-0.4v-3.5c-0.7,0.2-1.2,0.3-1.9,0.3c-1.4,0-1.9-0.4-1.9-1.7v-5.3h3.9v-3.6
		h-3.9v-4.5l-4.3,0.9v3.6h-2.8v3.6h2.8L146.1,24.5L146.1,24.5z M132.9,24.6c0-0.9,0.9-1.4,2.3-1.4c0.9,0,1.8,0.1,2.5,0.3v1.8
		c-0.8,0.5-1.7,0.7-2.7,0.7C133.7,26,132.9,25.5,132.9,24.6 M134.2,29c1.5,0,2.7-0.3,3.9-1.1v0.9h4.2v-8.9c0-3.4-2.3-5.3-6.1-5.3
		c-2.1,0-4.2,0.5-6.5,1.5l1.5,3.1c1.6-0.7,3-1.1,4.2-1.1c1.8,0,2.7,0.7,2.7,2.1v0.7c-1-0.3-2.1-0.4-3.2-0.4c-3.6,0-5.7,1.5-5.7,4.2
		C129.1,27.1,131.1,29,134.2,29 M111,28.8h4.5v-7.2h7.6v7.2h4.5V10.3h-4.5v7.1h-7.6v-7.1H111V28.8z M93.7,21.8c0-2,1.6-3.5,3.7-3.5
		c1.2,0,2.2,0.4,3,1.1v4.9c-0.8,0.7-1.8,1.1-3,1.1C95.3,25.3,93.7,23.8,93.7,21.8 M100.4,28.8h4.2V9.4l-4.3,0.9v5.2
		c-1.1-0.6-2.3-0.9-3.6-0.9c-4.1,0-7.2,3.1-7.2,7.1s3.1,7.2,7.1,7.2c1.4,0,2.7-0.4,3.7-1.2L100.4,28.8L100.4,28.8z M81.1,18.1
		c1.4,0,2.5,0.9,2.9,2.2h-5.8C78.6,18.9,79.7,18.1,81.1,18.1 M73.9,21.8c0,4.1,3.3,7.2,7.6,7.2c2.4,0,4.1-0.6,5.8-2.1l-2.8-2.5
		c-0.7,0.7-1.6,1.1-2.8,1.1c-1.6,0-2.9-0.9-3.4-2.2h9.9v-1.1c0-4.4-3-7.6-7-7.6C77.1,14.6,73.9,17.8,73.9,21.8 M66.5,14.2
		c1.5,0,2.4,1,2.4,2.1s-0.9,2.1-2.4,2.1H62v-4.2H66.5z M57.5,28.8H62v-6.7h3.5l3.5,6.7H74L70,21.4c2.2-1,3.5-2.9,3.5-5.2
		c0-3.3-2.6-5.9-6.5-5.9h-9.4L57.5,28.8L57.5,28.8z"/>
</g>
</svg>
